<svg width="500" height="541" viewBox="0 0 500 541" fill="none" xmlns="http://www.w3.org/2000/svg">
<path d="M44.3403 480.126C38.4262 469.257 28.1652 464.74 26.9816 466.318C-19.4529 371.064 -39.0918 178.295 253.828 169.248C259.629 251.601 228.139 425.435 55.7724 461.954C44.2082 422.696 54.6768 319.715 189.064 221.846C138.851 245.583 37.8784 320.445 35.6873 430C34.761 439.072 35.1947 461.798 44.3403 480.126Z" fill="url(#paint0_linear_754_222)"/>
<path d="M298.014 288.392C311.822 251.307 337.071 159.78 337.071 147.155L259.5 130.787L331.942 67.8575C374.944 30.3785 410.845 0.000793457 412.029 0.000793457C413.212 -0.393722 476.224 135.32 499.5 181.872L427.1 165.998C425.356 169.801 423.825 175.007 421.892 181.872C395.065 279.318 381.651 316.797 354.43 371.24C322.079 435.94 275.921 488.016 226.606 515.632C163.484 550.744 86.948 548.377 52.6251 510.109C42.6848 499.033 32.0413 477.528 28.1007 469L26.9816 466.318C28.1652 464.74 38.4262 469.257 44.3403 480.126C49.1255 486.748 54.1054 491.467 60 494.684C70.4372 500.38 83.7423 501.365 103.912 499.852C135.868 497.485 167.035 481.31 201.357 448.17C242.782 409.113 270.003 364.533 298.014 288.392Z" fill="#377576"/>
<defs>
<linearGradient id="paint0_linear_754_222" x1="249.75" y1="540.468" x2="249.75" y2="-6.10352e-05" gradientUnits="userSpaceOnUse">
<stop stop-color="#377576"/>
<stop offset="0.259615" stop-color="#3E7B7A"/>
<stop offset="1" stop-color="#ADDFD0"/>
</linearGradient>
</defs>
</svg>
